
    <svg xmlns="http://www.w3.org/2000/svg" viewBox="0 0 2048 1024">
      <defs>
        <linearGradient id="ocean" x1="0%" x2="100%" y1="0%" y2="100%">
          <stop offset="0%" stop-color="#214d4d"/>
          <stop offset="100%" stop-color="#427a4f"/>
        </linearGradient>
        <radialGradient id="atmo" cx="38%" cy="30%" r="72%">
          <stop offset="0%" stop-color="#9fd2ff" stop-opacity="0.34"/>
          <stop offset="100%" stop-color="#ffffff" stop-opacity="0"/>
        </radialGradient>
      </defs>
      <rect width="2048" height="1024" fill="url(#ocean)"/>
      <rect width="2048" height="1024" fill="url(#atmo)"/>
      <path d="M247 255C437 142 675 122 845 194C1033 274 1239 212 1451 308C1643 396 1835 466 2025 632L1898 892L96 892Z" fill="#78934a" opacity="0.92"/>
      <path d="M167 502C323 428 509 414 687 450C849 486 1043 558 1223 612C1395 662 1575 650 1777 612C1955 580 2095 650 2048 708V1024H0Z" fill="#9f8749" opacity="0.82"/>
      <path d="M409 138C595 76 853 72 1029 126C1221 184 1445 160 1673 228C1861 284 2039 318 2048 386V476C1882 402 1690 396 1518 378C1304 354 1164 396 952 358C774 326 602 252 434 242C260 232 126 252 0 304V204C88 180 176 162 282 138Z" fill="#ddd39a" opacity="0.7"/>
      
      
    </svg>
  