
    <svg xmlns="http://www.w3.org/2000/svg" viewBox="0 0 2048 1024">
      <defs>
        <linearGradient id="ocean" x1="0%" x2="100%" y1="0%" y2="100%">
          <stop offset="0%" stop-color="#183a5e"/>
          <stop offset="100%" stop-color="#2d6f7f"/>
        </linearGradient>
        <radialGradient id="atmo" cx="38%" cy="30%" r="72%">
          <stop offset="0%" stop-color="#e9b16f" stop-opacity="0.34"/>
          <stop offset="100%" stop-color="#ffffff" stop-opacity="0"/>
        </radialGradient>
      </defs>
      <rect width="2048" height="1024" fill="url(#ocean)"/>
      <rect width="2048" height="1024" fill="url(#atmo)"/>
      <path d="M324 255C514 142 752 122 922 194C1110 274 1316 212 1528 308C1720 396 1912 466 2102 632L1898 892L96 892Z" fill="#6f9e6c" opacity="0.92"/>
      <path d="M244 502C400 428 586 414 764 450C926 486 1120 558 1300 612C1472 662 1652 650 1854 612C2032 580 2172 650 2048 708V1024H0Z" fill="#d1b96f" opacity="0.82"/>
      <path d="M486 138C672 76 930 72 1106 126C1298 184 1522 160 1750 228C1938 284 2116 318 2048 386V476C1882 402 1690 396 1518 378C1304 354 1164 396 952 358C774 326 602 252 434 242C260 232 126 252 0 304V204C88 180 176 162 282 138Z" fill="#f0d59c" opacity="0.7"/>
      
      
    </svg>
  