
    <svg xmlns="http://www.w3.org/2000/svg" viewBox="0 0 2048 1024">
      <defs>
        <linearGradient id="ocean" x1="0%" x2="100%" y1="0%" y2="100%">
          <stop offset="0%" stop-color="#457eae"/>
          <stop offset="100%" stop-color="#86ccff"/>
        </linearGradient>
        <radialGradient id="atmo" cx="40%" cy="28%" r="74%">
          <stop offset="0%" stop-color="#8fd7ff" stop-opacity="0.491"/>
          <stop offset="100%" stop-color="#ffffff" stop-opacity="0"/>
        </radialGradient>
      </defs>
      <rect width="2048" height="1024" fill="url(#ocean)"/>
      <rect width="2048" height="1024" fill="url(#atmo)"/>
      <path d="M208 244C402 132 636 120 828 182C1024 244 1206 210 1452 300C1640 370 1824 472 1964 628L1898 892L110 892Z" fill="#6ec9a2" opacity="0.924"/>
      <path d="M92 669C256 611 506 641 702 681C968 735 1238 705 1502 761C1738 809 1918 793 2048 815V1024H0Z" fill="#64ac9f" opacity="0.86"/>
      <path d="M356 126C548 72 822 80 1046 126C1266 172 1478 166 1718 254C1882 316 1984 350 2048 396V486C1840 404 1662 392 1452 370C1246 348 1120 384 906 342C706 304 550 238 388 236C244 234 126 248 0 304V216C110 178 214 154 356 126Z" fill="#bae6e0" opacity="0.72"/>
      <rect x="0" y="84" width="2048" height="228" fill="#e6f4ff" opacity="0.40104"/>
      <rect x="0" y="828" width="2048" height="199" fill="#e6f4ff" opacity="0.37876000000000004"/>
      <g opacity="0.27791999999999994">
        <circle cx="332" cy="344" r="32.212" fill="#f9eeb9"/>
        <circle cx="882" cy="418" r="24.728" fill="#f9eeb9"/>
        <circle cx="1398" cy="304" r="25.58" fill="#f9eeb9"/>
      </g>
    </svg>
  