
    <svg xmlns="http://www.w3.org/2000/svg" viewBox="0 0 2048 1024">
      <defs>
        <linearGradient id="ocean" x1="0%" x2="100%" y1="0%" y2="100%">
          <stop offset="0%" stop-color="#3d8e7f"/>
          <stop offset="100%" stop-color="#71dbc6"/>
        </linearGradient>
        <radialGradient id="atmo" cx="40%" cy="28%" r="74%">
          <stop offset="0%" stop-color="#8df4cf" stop-opacity="0.538"/>
          <stop offset="100%" stop-color="#ffffff" stop-opacity="0"/>
        </radialGradient>
      </defs>
      <rect width="2048" height="1024" fill="url(#ocean)"/>
      <rect width="2048" height="1024" fill="url(#atmo)"/>
      <path d="M208 244C402 132 636 120 828 182C1024 244 1206 210 1452 300C1640 370 1824 472 1964 628L1898 892L110 892Z" fill="#8fe088" opacity="0.916"/>
      <path d="M92 915C256 857 506 887 702 927C968 981 1238 951 1502 1007C1738 1055 1918 1039 2048 1061V1024H0Z" fill="#82b973" opacity="0.82"/>
      <path d="M356 126C548 72 822 80 1046 126C1266 172 1478 166 1718 254C1882 316 1984 350 2048 396V486C1840 404 1662 392 1452 370C1246 348 1120 384 906 342C706 304 550 238 388 236C244 234 126 248 0 304V216C110 178 214 154 356 126Z" fill="#7a8454" opacity="0.72"/>
      <rect x="0" y="71" width="2048" height="249" fill="#e6f7fb" opacity="0.50328"/>
      <rect x="0" y="809" width="2048" height="217" fill="#e6f7fb" opacity="0.47532"/>
      <g opacity="0.0336">
        <circle cx="332" cy="344" r="8.120000000000001" fill="#f6ffc2"/>
        <circle cx="882" cy="418" r="6.868" fill="#f6ffc2"/>
        <circle cx="1398" cy="304" r="6.98" fill="#f6ffc2"/>
      </g>
    </svg>
  