
    <svg xmlns="http://www.w3.org/2000/svg" viewBox="0 0 2048 1024">
      <defs>
        <linearGradient id="ocean" x1="0%" x2="100%" y1="0%" y2="100%">
          <stop offset="0%" stop-color="#0b203d"/>
          <stop offset="100%" stop-color="#133f60"/>
        </linearGradient>
        <radialGradient id="atmo" cx="38%" cy="30%" r="72%">
          <stop offset="0%" stop-color="#e9b16f" stop-opacity="0.34"/>
          <stop offset="100%" stop-color="#ffffff" stop-opacity="0"/>
        </radialGradient>
      </defs>
      <rect width="2048" height="1024" fill="url(#ocean)"/>
      <rect width="2048" height="1024" fill="url(#atmo)"/>
      <path d="M240 255C430 142 668 122 838 194C1026 274 1232 212 1444 308C1636 396 1828 466 2018 632L1898 892L96 892Z" fill="#7c8c46" opacity="0.92"/>
      <path d="M160 502C316 428 502 414 680 450C842 486 1036 558 1216 612C1388 662 1568 650 1770 612C1948 580 2088 650 2048 708V1024H0Z" fill="#c8b56d" opacity="0.82"/>
      <path d="M402 138C588 76 846 72 1022 126C1214 184 1438 160 1666 228C1854 284 2032 318 2048 386V476C1882 402 1690 396 1518 378C1304 354 1164 396 952 358C774 326 602 252 434 242C260 232 126 252 0 304V204C88 180 176 162 282 138Z" fill="#f0e2b7" opacity="0.7"/>
      
      
    </svg>
  