
    <svg xmlns="http://www.w3.org/2000/svg" viewBox="0 0 2048 1024">
      <defs>
        <linearGradient id="ocean" x1="0%" x2="100%" y1="0%" y2="100%">
          <stop offset="0%" stop-color="#081f40"/>
          <stop offset="100%" stop-color="#174c74"/>
        </linearGradient>
        <radialGradient id="atmo" cx="38%" cy="30%" r="72%">
          <stop offset="0%" stop-color="#9fd2ff" stop-opacity="0.34"/>
          <stop offset="100%" stop-color="#ffffff" stop-opacity="0"/>
        </radialGradient>
      </defs>
      <rect width="2048" height="1024" fill="url(#ocean)"/>
      <rect width="2048" height="1024" fill="url(#atmo)"/>
      <path d="M233 255C423 142 661 122 831 194C1019 274 1225 212 1437 308C1629 396 1821 466 2011 632L1898 892L96 892Z" fill="#325a76" opacity="0.92"/>
      <path d="M153 502C309 428 495 414 673 450C835 486 1029 558 1209 612C1381 662 1561 650 1763 612C1941 580 2081 650 2048 708V1024H0Z" fill="#4a7f6f" opacity="0.82"/>
      <path d="M395 138C581 76 839 72 1015 126C1207 184 1431 160 1659 228C1847 284 2025 318 2048 386V476C1882 402 1690 396 1518 378C1304 354 1164 396 952 358C774 326 602 252 434 242C260 232 126 252 0 304V204C88 180 176 162 282 138Z" fill="#809654" opacity="0.7"/>
      
      
    </svg>
  