
    <svg xmlns="http://www.w3.org/2000/svg" viewBox="0 0 2048 1024">
      <defs>
        <linearGradient id="ocean" x1="0%" x2="100%" y1="0%" y2="100%">
          <stop offset="0%" stop-color="#427dae"/>
          <stop offset="100%" stop-color="#7bc8ff"/>
        </linearGradient>
        <radialGradient id="atmo" cx="40%" cy="28%" r="74%">
          <stop offset="0%" stop-color="#89d5ff" stop-opacity="0.549"/>
          <stop offset="100%" stop-color="#ffffff" stop-opacity="0"/>
        </radialGradient>
      </defs>
      <rect width="2048" height="1024" fill="url(#ocean)"/>
      <rect width="2048" height="1024" fill="url(#atmo)"/>
      <path d="M208 244C402 132 636 120 828 182C1024 244 1206 210 1452 300C1640 370 1824 472 1964 628L1898 892L110 892Z" fill="#73d1a2" opacity="0.908"/>
      <path d="M92 646C256 588 506 618 702 658C968 712 1238 682 1502 738C1738 786 1918 770 2048 792V1024H0Z" fill="#6daf87" opacity="0.78"/>
      <path d="M356 126C548 72 822 80 1046 126C1266 172 1478 166 1718 254C1882 316 1984 350 2048 396V486C1840 404 1662 392 1452 370C1246 348 1120 384 906 342C706 304 550 238 388 236C244 234 126 248 0 304V216C110 178 214 154 356 126Z" fill="#707f5c" opacity="0.72"/>
      <rect x="0" y="65" width="2048" height="258" fill="#e6f4ff" opacity="0.54936"/>
      <rect x="0" y="801" width="2048" height="225" fill="#e6f4ff" opacity="0.5188400000000001"/>
      <g opacity="0.02">
        <circle cx="332" cy="344" r="7.48" fill="#f8edb4"/>
        <circle cx="882" cy="418" r="6.287" fill="#f8edb4"/>
        <circle cx="1398" cy="304" r="6.42" fill="#f8edb4"/>
      </g>
    </svg>
  