
    <svg xmlns="http://www.w3.org/2000/svg" viewBox="0 0 2048 1024">
      <defs>
        <linearGradient id="ocean" x1="0%" x2="100%" y1="0%" y2="100%">
          <stop offset="0%" stop-color="#0b1526"/>
          <stop offset="100%" stop-color="#12314c"/>
        </linearGradient>
        <radialGradient id="atmo" cx="38%" cy="30%" r="72%">
          <stop offset="0%" stop-color="#9fd2ff" stop-opacity="0.34"/>
          <stop offset="100%" stop-color="#ffffff" stop-opacity="0"/>
        </radialGradient>
      </defs>
      <rect width="2048" height="1024" fill="url(#ocean)"/>
      <rect width="2048" height="1024" fill="url(#atmo)"/>
      <path d="M201 255C391 142 629 122 799 194C987 274 1193 212 1405 308C1597 396 1789 466 1979 632L1898 892L96 892Z" fill="#294a62" opacity="0.92"/>
      <path d="M121 502C277 428 463 414 641 450C803 486 997 558 1177 612C1349 662 1529 650 1731 612C1909 580 2049 650 2048 708V1024H0Z" fill="#f0a95c" opacity="0.82"/>
      <path d="M363 138C549 76 807 72 983 126C1175 184 1399 160 1627 228C1815 284 1993 318 2048 386V476C1882 402 1690 396 1518 378C1304 354 1164 396 952 358C774 326 602 252 434 242C260 232 126 252 0 304V204C88 180 176 162 282 138Z" fill="#fff1b8" opacity="0.7"/>
      
      <g opacity="0.78">
         <circle cx="401" cy="322" r="12" fill="#ffd37a"/>
         <circle cx="900.5" cy="412" r="14" fill="#ffd37a"/>
         <circle cx="1387" cy="296" r="10" fill="#ffd37a"/>
         <path d="M361 346L882.5 430L1407 314" stroke="#f8c97c" stroke-width="6" opacity="0.56"/>
       </g>
    </svg>
  