
    <svg xmlns="http://www.w3.org/2000/svg" viewBox="0 0 2048 1024">
      <defs>
        <linearGradient id="ocean" x1="0%" x2="100%" y1="0%" y2="100%">
          <stop offset="0%" stop-color="#0b1526"/>
          <stop offset="100%" stop-color="#12314c"/>
        </linearGradient>
        <radialGradient id="atmo" cx="38%" cy="30%" r="72%">
          <stop offset="0%" stop-color="#e9b16f" stop-opacity="0.34"/>
          <stop offset="100%" stop-color="#ffffff" stop-opacity="0"/>
        </radialGradient>
      </defs>
      <rect width="2048" height="1024" fill="url(#ocean)"/>
      <rect width="2048" height="1024" fill="url(#atmo)"/>
      <path d="M200 255C390 142 628 122 798 194C986 274 1192 212 1404 308C1596 396 1788 466 1978 632L1898 892L96 892Z" fill="#294a62" opacity="0.92"/>
      <path d="M120 502C276 428 462 414 640 450C802 486 996 558 1176 612C1348 662 1528 650 1730 612C1908 580 2048 650 2048 708V1024H0Z" fill="#f0a95c" opacity="0.82"/>
      <path d="M362 138C548 76 806 72 982 126C1174 184 1398 160 1626 228C1814 284 1992 318 2048 386V476C1882 402 1690 396 1518 378C1304 354 1164 396 952 358C774 326 602 252 434 242C260 232 126 252 0 304V204C88 180 176 162 282 138Z" fill="#fff1b8" opacity="0.7"/>
      
      <g opacity="0.78">
         <circle cx="400" cy="322" r="12" fill="#ffd37a"/>
         <circle cx="900" cy="412" r="14" fill="#ffd37a"/>
         <circle cx="1386.6666666666667" cy="296" r="10" fill="#ffd37a"/>
         <path d="M360 346L882 430L1406.6666666666667 314" stroke="#f8c97c" stroke-width="6" opacity="0.56"/>
       </g>
    </svg>
  