
    <svg xmlns="http://www.w3.org/2000/svg" viewBox="0 0 2048 1024">
      <defs>
        <linearGradient id="ocean" x1="0%" x2="100%" y1="0%" y2="100%">
          <stop offset="0%" stop-color="#0b203d"/>
          <stop offset="100%" stop-color="#133f60"/>
        </linearGradient>
        <radialGradient id="atmo" cx="38%" cy="30%" r="72%">
          <stop offset="0%" stop-color="#9fd2ff" stop-opacity="0.34"/>
          <stop offset="100%" stop-color="#ffffff" stop-opacity="0"/>
        </radialGradient>
      </defs>
      <rect width="2048" height="1024" fill="url(#ocean)"/>
      <rect width="2048" height="1024" fill="url(#atmo)"/>
      <path d="M241 255C431 142 669 122 839 194C1027 274 1233 212 1445 308C1637 396 1829 466 2019 632L1898 892L96 892Z" fill="#7c8c46" opacity="0.92"/>
      <path d="M161 502C317 428 503 414 681 450C843 486 1037 558 1217 612C1389 662 1569 650 1771 612C1949 580 2089 650 2048 708V1024H0Z" fill="#c8b56d" opacity="0.82"/>
      <path d="M403 138C589 76 847 72 1023 126C1215 184 1439 160 1667 228C1855 284 2033 318 2048 386V476C1882 402 1690 396 1518 378C1304 354 1164 396 952 358C774 326 602 252 434 242C260 232 126 252 0 304V204C88 180 176 162 282 138Z" fill="#f0e2b7" opacity="0.7"/>
      
      
    </svg>
  