
    <svg xmlns="http://www.w3.org/2000/svg" viewBox="0 0 2048 1024">
      <defs>
        <linearGradient id="ocean" x1="0%" x2="100%" y1="0%" y2="100%">
          <stop offset="0%" stop-color="#4780ae"/>
          <stop offset="100%" stop-color="#89ceff"/>
        </linearGradient>
        <radialGradient id="atmo" cx="40%" cy="28%" r="74%">
          <stop offset="0%" stop-color="#92d8ff" stop-opacity="0.49"/>
          <stop offset="100%" stop-color="#ffffff" stop-opacity="0"/>
        </radialGradient>
      </defs>
      <rect width="2048" height="1024" fill="url(#ocean)"/>
      <rect width="2048" height="1024" fill="url(#atmo)"/>
      <path d="M208 244C402 132 636 120 828 182C1024 244 1206 210 1452 300C1640 370 1824 472 1964 628L1898 892L110 892Z" fill="#6ec9a5" opacity="0.924"/>
      <path d="M92 670C256 612 506 642 702 682C968 736 1238 706 1502 762C1738 810 1918 794 2048 816V1024H0Z" fill="#65aea3" opacity="0.86"/>
      <path d="M356 126C548 72 822 80 1046 126C1266 172 1478 166 1718 254C1882 316 1984 350 2048 396V486C1840 404 1662 392 1452 370C1246 348 1120 384 906 342C706 304 550 238 388 236C244 234 126 248 0 304V216C110 178 214 154 356 126Z" fill="#bce7e1" opacity="0.72"/>
      <rect x="0" y="84" width="2048" height="227" fill="#e7f5ff" opacity="0.39744"/>
      <rect x="0" y="828" width="2048" height="198" fill="#e7f5ff" opacity="0.3753600000000001"/>
      <g opacity="0.2784">
        <circle cx="332" cy="344" r="32.239999999999995" fill="#f9efbc"/>
        <circle cx="882" cy="418" r="24.944000000000003" fill="#f9efbc"/>
        <circle cx="1398" cy="304" r="25.6" fill="#f9efbc"/>
      </g>
    </svg>
  